<svg width="35" height="35" viewBox="0 0 35 35" fill="none" xmlns="http://www.w3.org/2000/svg">
<path d="M27.9999 9.32349H13.0098V11.1715H27.9999V9.32349Z" fill="#A9BEC9"/>
<path d="M27.9999 16.7157H13.0098V18.5638H27.9999V16.7157Z" fill="#A9BEC9"/>
<path d="M27.9999 24.108H13.0098V25.9561H27.9999V24.108Z" fill="#A9BEC9"/>
<path d="M8.67085 12.0956C9.59028 12.0956 10.3353 11.2683 10.3353 10.2475C10.3353 9.2273 9.59028 8.40002 8.67085 8.40002H8.66105C7.74162 8.40002 7 9.2273 7 10.2475C7.00049 11.2678 7.75044 12.0956 8.67085 12.0956Z" fill="#A9BEC9"/>
<path d="M8.67085 19.4879C9.59028 19.4879 10.3353 18.6611 10.3353 17.6404C10.3353 16.6196 9.59028 15.7928 8.67085 15.7928H8.66105C7.74162 15.7928 7 16.6196 7 17.6404C7 18.6611 7.75044 19.4879 8.67085 19.4879Z" fill="#A9BEC9"/>
<path d="M8.67085 26.88C9.59028 26.88 10.3353 26.0527 10.3353 25.0325C10.3353 24.0112 9.59028 23.1844 8.67085 23.1844H8.66105C7.74162 23.1844 7 24.0112 7 25.0325C7.00049 26.0527 7.75044 26.88 8.67085 26.88Z" fill="#A9BEC9"/>
</svg>
