<svg width="46" height="38" viewBox="0 0 46 38" fill="none" xmlns="http://www.w3.org/2000/svg">
<path d="M41.019 3.50716C35.8927 -0.45842 27.9727 0.137233 23.0682 4.73111C18.1637 0.137233 10.2437 -0.466579 5.11742 3.50716C-1.55204 8.67221 -0.576452 17.0929 4.17731 21.5563L19.7335 36.1375C20.6204 36.9698 21.8088 37.4349 23.0682 37.4349C24.3364 37.4349 25.516 36.978 26.4029 36.1457L41.9591 21.5644C46.704 17.1011 47.6973 8.68037 41.019 3.50716V3.50716ZM38.9259 18.8065L23.3697 33.3877C23.1569 33.5836 22.9795 33.5836 22.7666 33.3877L7.21049 18.8065C3.97332 15.7711 3.31702 10.0267 7.85793 6.50991C11.308 3.84171 16.6293 4.24153 19.9641 7.36667L23.0682 10.2797L26.1723 7.36667C29.5248 4.22521 34.8462 3.84171 38.2784 6.50175C42.8105 10.0185 42.1364 15.7956 38.9259 18.8065V18.8065Z" fill="#A9BEC9"/>
</svg>
