<svg width="40" height="36" viewBox="0 0 40 36" fill="none" xmlns="http://www.w3.org/2000/svg">
<path d="M20.1196 33.0614C18.6321 33.0614 17.4272 31.8566 17.4272 30.3691C17.4272 28.8816 18.6321 27.6768 20.1196 27.6768C21.607 27.6768 22.8119 28.8816 22.8119 30.3691C22.8119 31.1128 22.5107 31.7859 22.0235 32.273C21.5364 32.7602 20.8633 33.0614 20.1196 33.0614Z" fill="#A9BEC9"/>
<path d="M20.1196 23.3178C18.6321 23.3178 17.4272 22.113 17.4272 20.6255C17.4272 19.138 18.6321 17.9332 20.1196 17.9332C21.607 17.9332 22.8119 19.138 22.8119 20.6255C22.8119 21.3692 22.5106 22.0423 22.0235 22.5294C21.5364 23.0166 20.8633 23.3178 20.1196 23.3178Z" fill="#A9BEC9"/>
<path d="M20.1196 13.7025C18.6321 13.7025 17.4272 12.4976 17.4272 11.0102C17.4272 9.52268 18.6321 8.31784 20.1196 8.31784C21.607 8.31784 22.8119 9.52268 22.8119 11.0102C22.8119 11.7539 22.5107 12.427 22.0235 12.9141C21.5364 13.4012 20.8633 13.7025 20.1196 13.7025Z" fill="#A9BEC9"/>
</svg>
